<?xml version="1.0" standalone="no"?>
<!DOCTYPE svg PUBLIC "-//W3C//DTD SVG 20010904//EN"
 "http://www.w3.org/TR/2001/REC-SVG-20010904/DTD/svg10.dtd">
<svg version="1.0" xmlns="http://www.w3.org/2000/svg"
 width="254.000000pt" height="254.000000pt" viewBox="0 0 254.000000 254.000000"
 preserveAspectRatio="xMidYMid meet">
<metadata>
Created by potrace 1.11, written by Peter Selinger 2001-2013
</metadata>
<g transform="translate(0.000000,254.000000) scale(0.100000,-0.100000)"
fill="#000000" stroke="none">
<path d="M1909 2126 c-5 -5 -59 -14 -139 -21 -36 -4 -71 -8 -79 -11 -27 -9
-227 -5 -254 5 -15 6 -27 9 -27 7 0 -3 7 -32 16 -66 8 -34 14 -63 12 -65 -2
-1 -57 -16 -124 -33 -66 -16 -158 -45 -204 -63 l-83 -34 -67 65 c-37 36 -86
76 -110 89 l-42 23 6 -38 c3 -22 8 -89 12 -150 l6 -110 -61 -70 c-51 -59 -106
-149 -124 -204 -3 -9 -128 -63 -313 -134 -170 -65 -313 -122 -317 -126 -4 -4
21 -1 55 6 70 15 247 20 324 9 82 -11 87 -12 159 -30 126 -31 278 -98 419
-184 70 -43 200 -99 301 -131 39 -12 77 -24 85 -26 12 -4 13 -6 0 -14 -24 -15
-3 -24 27 -11 16 6 40 10 53 7 14 -2 31 -5 37 -5 9 -1 10 -8 3 -26 -11 -30 -4
-31 47 -10 43 18 92 20 94 3 1 -7 3 -20 4 -28 1 -8 3 -20 4 -27 0 -7 26 -2 74
17 124 47 120 47 112 10 l-7 -32 42 28 c31 21 56 28 98 30 65 3 217 15 247 19
11 2 38 6 60 10 33 5 158 31 253 52 12 3 22 8 22 12 0 18 -396 227 -691 364
-144 67 -156 72 -274 122 -271 115 -306 138 -350 225 -25 51 -24 85 7 147 37
74 185 206 286 254 35 17 65 22 142 24 l99 2 103 61 c61 37 94 62 82 62 -11 0
-23 -2 -25 -4z m-561 -1055 c5 -50 -33 -36 -43 16 -5 30 -4 32 17 24 16 -6 24
-18 26 -40z m78 1 c16 -10 24 -52 11 -52 -21 0 -37 16 -42 38 -4 22 10 28 31
14z m90 -30 c6 -4 13 -15 17 -25 6 -15 3 -18 -14 -15 -24 3 -48 48 -26 48 7 0
17 -4 23 -8z m264 -128 c73 -10 61 -17 -19 -11 -40 3 -79 11 -85 18 -8 9 -3
10 24 5 19 -3 55 -9 80 -12z"/>
<path d="M1431 1849 c-13 -11 -21 -22 -17 -26 3 -3 6 -4 6 -1 0 8 156 -26 216
-47 132 -45 287 -140 377 -231 37 -38 38 -40 32 -94 -5 -46 -22 -138 -37 -200
-2 -9 15 -24 45 -40 41 -22 49 -23 57 -10 18 29 49 186 52 267 2 53 -27 92
-120 166 -141 112 -296 184 -478 222 -93 19 -104 19 -133 -6z"/>
<path d="M697 1750 c-88 -46 -168 -103 -236 -169 -59 -58 -61 -61 -61 -111 0
-46 2 -51 18 -45 9 4 31 12 47 17 42 15 54 26 48 47 -5 19 54 81 130 139 47
35 110 110 114 134 2 10 2 18 0 18 -1 0 -28 -13 -60 -30z"/>
<path d="M1294 1711 c-56 -82 -7 -160 136 -221 30 -12 78 -33 105 -45 28 -12
100 -44 160 -70 61 -26 135 -60 166 -76 l57 -28 6 37 c4 20 9 64 12 97 6 58 5
61 -28 94 -123 126 -311 211 -526 240 l-63 8 -25 -36z"/>
<path d="M487 1114 c-3 -3 7 -30 24 -60 135 -251 328 -429 614 -570 72 -35
133 -64 136 -64 3 0 5 9 4 20 -1 15 -23 31 -83 60 -251 121 -441 304 -546 527
-30 64 -24 60 -127 89 -8 2 -18 1 -22 -2z"/>
<path d="M751 993 c106 -177 241 -299 436 -397 40 -20 82 -36 93 -36 33 0 270
128 270 146 0 3 -49 -15 -154 -55 -16 -7 -31 -9 -34 -6 -3 2 2 23 11 45 15 40
15 40 -7 40 -13 0 -48 -5 -77 -10 -30 -6 -70 -13 -89 -16 -19 -3 -41 -7 -47
-9 -22 -7 -15 4 33 51 25 25 44 47 42 49 -2 2 -39 17 -83 35 -44 17 -134 61
-200 98 -210 116 -229 123 -194 65z"/>
<path d="M1655 657 c-16 -5 -66 -33 -110 -62 -69 -45 -150 -89 -231 -127 -18
-8 -23 -24 -15 -45 4 -9 227 102 304 151 50 32 97 81 86 90 -2 2 -17 -1 -34
-7z"/>
</g>
</svg>
